<?xml version="1.0" encoding="utf-8"?>
<!-- Generator: Adobe Illustrator 27.9.0, SVG Export Plug-In . SVG Version: 6.00 Build 0)  -->
<svg version="1.1" id="BACKGROUND" transform="matrix(1, 0, 0, 1, 0, 0)"
	 xmlns="http://www.w3.org/2000/svg" xmlns:xlink="http://www.w3.org/1999/xlink" x="0px" y="0px" viewBox="0 0 756 506"
	 style="enable-background:new 0 0 756 506;" xml:space="preserve">
<style type="text/css">
	.st0{fill:none;}
	.st1{fill:#D8BAC3;}
	.st2{fill:#AD9067;}
	.st3{fill:none;stroke:#E6AC05;stroke-width:2.6056;stroke-miterlimit:10;}
	.st4{fill:#E6AC05;}
	.st5{fill:#7B5F40;}
	.st6{fill:#E1C9A7;}
	.st7{fill:none;stroke:#7E6441;stroke-width:2.899;stroke-miterlimit:10;}
	.st8{fill:none;stroke:#7E6441;stroke-width:2;stroke-miterlimit:10;}
	.st9{fill:none;stroke:#504532;stroke-width:2;stroke-linecap:round;stroke-miterlimit:10;}
	.st10{fill:none;stroke:#E6AC05;stroke-width:2;stroke-miterlimit:10;}
	.st11{fill:#E6AC05;stroke:#E6AC05;stroke-miterlimit:10;}
	.st12{fill:none;stroke:#504532;stroke-width:2;stroke-miterlimit:10;}
	.st13{fill:none;stroke:#E6AC05;stroke-width:2;stroke-linecap:round;stroke-miterlimit:10;}
	.st14{fill:none;stroke:#E6AC05;stroke-width:0.75;stroke-miterlimit:10;}
	.st15{opacity:0.36;fill:url(#SVGID_1_);enable-background:new    ;}
	.st16{opacity:0.36;fill:url(#SVGID_00000147936262580284694430000003531090174833822384_);enable-background:new    ;}
	.st17{opacity:0.36;fill:url(#SVGID_00000106854765453132901500000014139264018672095653_);enable-background:new    ;}
</style>
<pattern  y="506" width="131.5" height="124.7" patternUnits="userSpaceOnUse" id="New_3" viewBox="53.5 -143.9 131.5 124.7" style="overflow:visible;">
	<g>
		<rect x="53.5" y="-143.9" class="st0" width="131.5" height="124.7"/>
		<g>
			<rect x="53.5" y="-143.9" class="st0" width="131.5" height="124.7"/>
			<g>
				<path class="st1" d="M57.1-23.3c0-1.1-0.9-2-2-2s-2,0.9-2,2s0.9,2,2,2C56.2-21.3,57.1-22.2,57.1-23.3z"/>
				<path class="st1" d="M68.6-23.3c0-1.1-0.9-2-2-2s-2,0.9-2,2s0.9,2,2,2S68.6-22.2,68.6-23.3z"/>
				<polygon class="st2" points="26.8,-21.8 54.4,-21.8 42.6,-44.7 				"/>
				<g>
					<path class="st3" d="M95.9-10.6c-2.5,0-4.5-2-4.5-4.5s2-4.5,4.5-4.5s4.5,2,4.5,4.5S98.3-10.6,95.9-10.6z"/>
					<path class="st3" d="M117.9-19.6c2.5,0,4.5,2,4.5,4.5s-2,4.5-4.5,4.5"/>
					<line class="st3" x1="117.9" y1="-19.6" x2="95.9" y2="-19.6"/>
				</g>
				<path class="st4" d="M67.7-37.9l9.7-9.7l9.7,9.7l-9.7,9.7L67.7-37.9z M77.4-44.7l-6.9,6.9l6.9,6.9l6.9-6.9L77.4-44.7z"/>
				<path class="st5" d="M102.3-47.8h17.9v17.9h-17.9V-47.8z M117.6-45.2H105v12.7h12.7L117.6-45.2L117.6-45.2z"/>
			</g>
			<g>
				<path class="st1" d="M177-23.3c0-1.1-0.9-2-2-2s-2,0.9-2,2s0.9,2,2,2S177-22.2,177-23.3z"/>
				<path class="st1" d="M188.6-23.3c0-1.1-0.9-2-2-2s-2,0.9-2,2s0.9,2,2,2C187.7-21.3,188.6-22.2,188.6-23.3z"/>
				<path class="st1" d="M161.8-40.8c0-1.1-0.9-2-2-2s-2,0.9-2,2s0.9,2,2,2C160.9-38.8,161.8-39.7,161.8-40.8z"/>
				<path class="st1" d="M130.3-18.2c0-1.1-0.9-2-2-2s-2,0.9-2,2s0.9,2,2,2C129.4-16.2,130.3-17.1,130.3-18.2z"/>
				<path class="st1" d="M141.9-18.2c0-1.1-0.9-2-2-2s-2,0.9-2,2s0.9,2,2,2S141.9-17.1,141.9-18.2z"/>
				<path class="st1" d="M153.4-18.2c0-1.1-0.9-2-2-2s-2,0.9-2,2s0.9,2,2,2S153.4-17.1,153.4-18.2z"/>
				<polygon class="st6" points="114.7,-27.8 122.4,0 136,-20.3 				"/>
				<polygon class="st2" points="158.2,-21.8 185.9,-21.8 174.1,-44.7 				"/>
				<g>
					<line class="st7" x1="155.8" y1="-38.5" x2="152.5" y2="-34"/>
					<line class="st7" x1="159.8" y1="-38.8" x2="163" y2="-34.3"/>
					<line class="st7" x1="159.5" y1="-44.3" x2="162.8" y2="-48.8"/>
					<line class="st7" x1="155.6" y1="-44" x2="152.3" y2="-48.5"/>
				</g>
				<g>
					<path class="st8" d="M125.7-22.6c-2.5,0-4.5-2-4.5-4.5s2-4.5,4.5-4.5c2.5,0,4.5,2,4.5,4.5S128.2-22.6,125.7-22.6z"/>
					<path class="st8" d="M147.7-31.6c2.5,0,4.5,2,4.5,4.5s-2,4.5-4.5,4.5"/>
					<line class="st8" x1="147.7" y1="-22.6" x2="125.7" y2="-22.6"/>
					<line class="st8" x1="147.7" y1="-31.6" x2="125.7" y2="-31.6"/>
				</g>
				<g>
					<line class="st9" x1="141.9" y1="-46" x2="141.9" y2="-34.9"/>
					<line class="st9" x1="147.4" y1="-40.5" x2="136.3" y2="-40.5"/>
				</g>
				<path class="st10" d="M175.1-35.7c-4,0-7.2-4.2-7.2-9.5c0-5.2,3.2-9.5,7.2-9.5s7.2,4.2,7.2,9.5C182.3-40,179.1-35.7,175.1-35.7z
					"/>
			</g>
			<g>
				<g>
					<path class="st3" d="M52.1-82c2.5,0,4.5,2,4.5,4.5s-2,4.5-4.5,4.5"/>
				</g>
				<path class="st5" d="M36.6-110.2h17.9v17.9H36.6V-110.2z M51.9-107.5H39.2v12.7h12.7V-107.5z"/>
			</g>
			<g>
				<path class="st1" d="M117.2-77c0-1.1-0.9-2-2-2s-2,0.9-2,2s0.9,2,2,2C116.3-75,117.2-75.9,117.2-77z"/>
				<path class="st1" d="M128.8-77c0-1.1-0.9-2-2-2s-2,0.9-2,2s0.9,2,2,2S128.8-75.9,128.8-77z"/>
				<path class="st1" d="M140.3-77c0-1.1-0.9-2-2-2s-2,0.9-2,2s0.9,2,2,2C139.4-75,140.3-75.9,140.3-77z"/>
				<path class="st1" d="M111.3-85.7c0-1.1-0.9-2-2-2s-2,0.9-2,2s0.9,2,2,2S111.3-84.6,111.3-85.7z"/>
				<path class="st1" d="M122.8-85.7c0-1.1-0.9-2-2-2s-2,0.9-2,2s0.9,2,2,2S122.8-84.6,122.8-85.7z"/>
				<path class="st1" d="M134.4-85.7c0-1.1-0.9-2-2-2s-2,0.9-2,2s0.9,2,2,2S134.4-84.6,134.4-85.7z"/>
				<path class="st1" d="M142.6-72.9c0-1.1-0.9-2-2-2s-2,0.9-2,2s0.9,2,2,2C141.7-70.9,142.6-71.8,142.6-72.9z"/>
				<path class="st1" d="M54-71.4c0-1.1-0.9-2-2-2s-2,0.9-2,2s0.9,2,2,2S54-70.3,54-71.4z"/>
				<path class="st1" d="M69.5-69.9c0-1.1-0.9-2-2-2s-2,0.9-2,2s0.9,2,2,2S69.5-68.8,69.5-69.9z"/>
				<path class="st1" d="M87.7-62.2c0-1.1-0.9-2-2-2s-2,0.9-2,2s0.9,2,2,2C86.8-60.2,87.7-61.1,87.7-62.2z"/>
				<path class="st1" d="M96-103.2c0-1.1-0.9-2-2-2s-2,0.9-2,2c0,1.1,0.9,2,2,2S96-102.1,96-103.2z"/>
				<path class="st1" d="M82.1-71.9c0-1.1-0.9-2-2-2s-2,0.9-2,2s0.9,2,2,2S82.1-70.8,82.1-71.9z"/>
				<path class="st1" d="M64.6-80.6c0-1.1-0.9-2-2-2s-2,0.9-2,2s0.9,2,2,2C63.7-78.6,64.6-79.5,64.6-80.6z"/>
				<path class="st1" d="M76.1-80.6c0-1.1-0.9-2-2-2s-2,0.9-2,2s0.9,2,2,2S76.1-79.5,76.1-80.6z"/>
				<path class="st1" d="M87.7-80.6c0-1.1-0.9-2-2-2s-2,0.9-2,2s0.9,2,2,2C86.8-78.6,87.7-79.5,87.7-80.6z"/>
				<polygon class="st6" points="49,-90.1 56.7,-62.4 70.3,-82.7 				"/>
				<polygon class="st2" points="92.5,-84.1 120.2,-84.1 108.4,-107 				"/>
				<polygon class="st1" points="128.2,-57.1 148.9,-58.1 147.9,-78.6 128.4,-77.7 				"/>
				<g>
					<line class="st7" x1="90.1" y1="-100.9" x2="86.8" y2="-96.4"/>
					<line class="st7" x1="94" y1="-101.2" x2="97.3" y2="-96.7"/>
					<line class="st7" x1="93.8" y1="-106.6" x2="97.1" y2="-111.1"/>
					<line class="st7" x1="89.8" y1="-106.3" x2="86.5" y2="-110.8"/>
				</g>
				<g>
					<path class="st3" d="M161.6-72.9c-2.5,0-4.5-2-4.5-4.5s2-4.5,4.5-4.5s4.5,2,4.5,4.5S164.1-72.9,161.6-72.9z"/>
					<path class="st3" d="M183.6-82c2.5,0,4.5,2,4.5,4.5s-2,4.5-4.5,4.5"/>
					<line class="st3" x1="183.6" y1="-72.9" x2="161.6" y2="-72.9"/>
					<line class="st3" x1="183.6" y1="-82" x2="161.6" y2="-82"/>
				</g>
				<g>
					<path class="st8" d="M60-85c-2.5,0-4.5-2-4.5-4.5s2-4.5,4.5-4.5s4.5,2,4.5,4.5S62.5-85,60-85z"/>
					<path class="st8" d="M82-94c2.5,0,4.5,2,4.5,4.5S84.5-85,82-85"/>
					<line class="st8" x1="82" y1="-85" x2="60" y2="-85"/>
					<line class="st8" x1="82" y1="-94" x2="60" y2="-94"/>
				</g>
				<path class="st11" d="M58.1-51.1c-0.2-0.2-0.2-0.5,0-0.7l7-7l6.3,6.3l6.4-6.4l6.5,6.5l6.4-6.4l6.7,6.7c0.2,0.2,0.2,0.5,0,0.7
					s-0.5,0.2-0.7,0l-5.9-5.9l-6.4,6.4l-6.5-6.6l-6.4,6.4l-6.3-6.3l-6.3,6.3c-0.1,0.1-0.2,0.2-0.4,0.2S58.2-51,58.1-51.1z"/>
				<path class="st12" d="M102.9-51.6c1.1-5.3,6.1-7.6,7.9-8.3c0.2-0.1,0.2-0.4,0-0.5c-1.8-0.7-6.8-3-7.9-8.3
					c-0.1-0.3-0.4-0.3-0.5,0c-1.1,5.3-6.1,7.6-7.9,8.3c-0.2,0.1-0.2,0.4,0,0.5c1.8,0.7,6.8,3,7.9,8.3
					C102.5-51.4,102.8-51.4,102.9-51.6z"/>
				<polygon class="st6" points="151.4,-45.2 160,-67.3 184.7,-53.9 				"/>
				<path class="st4" d="M133.4-100.2l9.7-9.7l9.7,9.7l-9.7,9.7L133.4-100.2z M143.1-107.1l-6.9,6.9l6.9,6.9l6.9-6.9L143.1-107.1z"
					/>
				<path class="st5" d="M168.1-110.2H186v17.9h-17.9V-110.2z M183.4-107.5h-12.7v12.7h12.7V-107.5z"/>
				<g>
					<line class="st13" x1="113.4" y1="-77.5" x2="113.4" y2="-62.3"/>
					<line class="st13" x1="118.9" y1="-69.9" x2="107.9" y2="-69.9"/>
				</g>
				<g>
					<line class="st9" x1="76.1" y1="-108.4" x2="76.1" y2="-97.3"/>
					<line class="st9" x1="81.7" y1="-102.8" x2="70.6" y2="-102.8"/>
				</g>
				<path class="st10" d="M109.3-98.1c-4,0-7.2-4.2-7.2-9.5c0-5.2,3.2-9.5,7.2-9.5s7.2,4.2,7.2,9.5S113.3-98.1,109.3-98.1z"/>
				<rect x="66.1" y="-79.7" class="st14" width="91.4" height="4.6"/>
			</g>
			<g>
				<path class="st1" d="M185.4-71.4c0-1.1-0.9-2-2-2s-2,0.9-2,2s0.9,2,2,2S185.4-70.3,185.4-71.4z"/>
				<polygon class="st6" points="180.4,-90.1 188.1,-62.4 201.7,-82.7 				"/>
			</g>
			<g>
				<path class="st1" d="M63-139.3c0-1.1-0.9-2-2-2s-2,0.9-2,2c0,1.1,0.9,2,2,2S63-138.2,63-139.3z"/>
				<path class="st1" d="M74.6-139.3c0-1.1-0.9-2-2-2s-2,0.9-2,2c0,1.1,0.9,2,2,2S74.6-138.2,74.6-139.3z"/>
				<path class="st1" d="M76.8-135.3c0-1.1-0.9-2-2-2s-2,0.9-2,2c0,1.1,0.9,2,2,2S76.8-134.2,76.8-135.3z"/>
				<polygon class="st1" points="62.5,-119.4 83.2,-120.5 82.2,-141 62.6,-140 				"/>
				<g>
					<path class="st3" d="M95.9-135.3c-2.5,0-4.5-2-4.5-4.5s2-4.5,4.5-4.5s4.5,2,4.5,4.5S98.3-135.3,95.9-135.3z"/>
					<path class="st3" d="M117.9-144.3c2.5,0,4.5,2,4.5,4.5s-2,4.5-4.5,4.5"/>
					<line class="st3" x1="117.9" y1="-135.3" x2="95.9" y2="-135.3"/>
					<line class="st3" x1="117.9" y1="-144.3" x2="95.9" y2="-144.3"/>
				</g>
				<polygon class="st6" points="85.7,-107.5 94.3,-129.6 119,-116.3 				"/>
				<g>
					<line class="st13" x1="53.2" y1="-132.2" x2="42.2" y2="-132.2"/>
				</g>
				<rect x="0.4" y="-142.1" class="st14" width="91.4" height="4.6"/>
			</g>
			<g>
				<path class="st1" d="M182.9-139.3c0-1.1-0.9-2-2-2s-2,0.9-2,2c0,1.1,0.9,2,2,2S182.9-138.2,182.9-139.3z"/>
				<path class="st1" d="M119.7-133.7c0-1.1-0.9-2-2-2s-2,0.9-2,2c0,1.1,0.9,2,2,2C118.8-131.7,119.7-132.6,119.7-133.7z"/>
				<path class="st1" d="M135.3-132.3c0-1.1-0.9-2-2-2s-2,0.9-2,2c0,1.1,0.9,2,2,2S135.3-131.1,135.3-132.3z"/>
				<path class="st1" d="M153.4-124.5c0-1.1-0.9-2-2-2s-2,0.9-2,2s0.9,2,2,2S153.4-123.4,153.4-124.5z"/>
				<path class="st1" d="M147.8-134.3c0-1.1-0.9-2-2-2s-2,0.9-2,2c0,1.1,0.9,2,2,2C146.9-132.3,147.8-133.1,147.8-134.3z"/>
				<path class="st1" d="M130.3-142.9c0-1.1-0.9-2-2-2s-2,0.9-2,2c0,1.1,0.9,2,2,2C129.4-140.9,130.3-141.8,130.3-142.9z"/>
				<path class="st1" d="M141.9-142.9c0-1.1-0.9-2-2-2s-2,0.9-2,2c0,1.1,0.9,2,2,2S141.9-141.8,141.9-142.9z"/>
				<path class="st1" d="M153.4-142.9c0-1.1-0.9-2-2-2s-2,0.9-2,2c0,1.1,0.9,2,2,2S153.4-141.8,153.4-142.9z"/>
				<polygon class="st6" points="114.7,-152.5 122.4,-124.7 136,-145 				"/>
				<path class="st11" d="M123.9-113.5c-0.2-0.2-0.2-0.5,0-0.7l7-7l6.3,6.3l6.4-6.4l6.5,6.5l6.4-6.4l6.7,6.7c0.2,0.2,0.2,0.5,0,0.7
					s-0.5,0.2-0.7,0l-5.9-5.9l-6.4,6.4l-6.5-6.5l-6.4,6.4l-6.3-6.3l-6.3,6.3c-0.1,0.1-0.2,0.2-0.4,0.2S124-113.4,123.9-113.5z"/>
				<path class="st12" d="M168.6-114c1.1-5.3,6.1-7.6,7.9-8.3c0.2-0.1,0.2-0.4,0-0.5c-1.8-0.7-6.8-3-7.9-8.3c-0.1-0.3-0.4-0.3-0.5,0
					c-1.1,5.3-6.1,7.6-7.9,8.3c-0.2,0.1-0.2,0.4,0,0.5c1.8,0.7,6.8,3,7.9,8.3C168.2-113.7,168.6-113.7,168.6-114z"/>
				<g>
					<line class="st13" x1="179.2" y1="-139.8" x2="179.2" y2="-124.7"/>
					<line class="st13" x1="184.7" y1="-132.2" x2="173.7" y2="-132.2"/>
				</g>
				<rect x="131.8" y="-142.1" class="st14" width="91.4" height="4.6"/>
			</g>
		</g>
	</g>
</pattern>
<pattern  id="SVGID_1_" xlink:href="#New_3" patternTransform="matrix(1 0 0 -1 -12.5 -17041.8008)">
</pattern>
<polyline class="st15" points="126.9,0 756,0 756,506 0,506 0,0 "/>
<pattern  id="SVGID_00000160184727090936455990000009797054933400143236_" xlink:href="#New_3" patternTransform="matrix(1 0 0 -1 -12.5 -17041.8008)">
</pattern>
<line style="opacity:0.36;fill:url(#SVGID_00000160184727090936455990000009797054933400143236_);enable-background:new    ;" x1="104" y1="47.7" x2="165" y2="47.7"/>
<pattern  id="SVGID_00000063594602290086541600000004635611206302224805_" xlink:href="#New_3" patternTransform="matrix(1 0 0 -1 -12.5 -17041.8008)">
</pattern>
<line style="opacity:0.36;fill:url(#SVGID_00000063594602290086541600000004635611206302224805_);enable-background:new    ;" x1="54.6" y1="47.7" x2="104" y2="47.7"/>
</svg>
